<svg width="489" height="524" viewBox="0 0 489 524" fill="none" xmlns="http://www.w3.org/2000/svg">
<path d="M104.526 171.244C102.96 181.501 99.8653 190.487 99.3687 201.002C97.6879 236.767 111.631 256.745 148.226 240.749C175.301 228.917 198.02 207.104 210.913 180.727C220.501 184.796 229.592 189.628 239.696 192.455C283.798 204.784 362.566 196.342 314.501 133.76C308.447 125.872 301.236 120.285 294.475 113.18C307.062 104.834 317.204 92.3899 324.548 79.2969C388.38 86.3734 439.425 127.305 466.146 185.149C571.406 413.012 289.261 617.038 95.2049 478.601C-5.8817 406.47 -40.2903 246.861 60.6435 159.975C74.2141 166.784 89.2457 171.11 104.516 171.244H104.526Z" fill="#DF4E42"/>
<path d="M199.238 92.352C221.318 61.0662 260.311 42.7876 297.995 39.6552C311.46 38.5378 321.02 37.7356 315.92 54.5913C307.449 82.5442 280.556 106.352 253.043 114.861C261.714 118.643 270.605 120.754 278.904 125.911C291.319 133.627 308.624 151.677 310.734 166.565C311.957 175.16 295.388 176.535 288.96 177.49C264.942 181.043 237.725 175.828 217.25 162.764C212.322 159.622 208.311 155.42 203.813 152.135C203.211 151.696 203.479 150.511 201.836 151.476C195.151 183.86 168.287 213.455 137.431 225.087C123.526 230.33 119.677 229.328 118.016 214C116.239 197.574 120.862 177.519 129.648 163.595C132.78 158.619 137.24 154.503 139.79 149.49C113.651 157.053 83.1009 153.73 60.1427 138.889C54.9093 135.508 44.0796 128.862 47.8519 121.623C50.5545 116.437 74.716 104.901 81.019 102.551C109.144 92.0368 143.705 89.6112 171.82 100.746C164.371 73.3189 162.309 35.1476 176.357 9.45809C183.261 -3.15744 194.626 -1.57214 205.513 5.046C223.877 16.2099 210.364 23.1528 204.405 35.8447C196.392 52.9296 194.215 74.0733 199.238 92.3616V92.352Z" fill="#43B074"/>
<path d="M337.494 353.956C330.208 352.743 330.294 340.461 337.733 339.249L360.051 339.144C360.462 338.857 360.596 331.752 360.825 330.51C362.296 322.422 374.682 321.629 377.165 329.231C378.215 332.439 377.155 335.715 377.174 338.981C378.32 338.981 379.524 339.21 380.641 339.258C393.438 339.745 406.464 338.838 419.223 339.01C428.735 339.134 430.043 351.539 421.372 353.937L375.14 353.994L374.615 354.911L373.307 362.398H409.11C412.853 362.398 416.387 366.208 416.883 369.809C417.743 376.131 410.771 388.412 407.114 393.664C405.91 395.403 404.354 397.017 403.198 398.669C403.055 398.869 402.864 398.907 402.959 399.27C406.369 400.712 409.692 402.412 413.197 403.616C416.415 404.723 421.983 405.516 424.409 407.588C429.165 411.638 427.665 419.249 422.164 421.741C418.373 423.46 413.331 421.57 409.578 420.252C402.768 417.864 396.389 414.417 390.296 410.606C385.273 413.844 380.183 416.976 374.672 419.325C371.54 420.662 366.154 423.021 362.84 422.63C356.193 421.856 353.338 412.726 358.724 408.438C360.92 406.691 363.251 406.509 365.714 405.545C367.099 405 376.773 400.837 376.936 400.073C377.155 399.041 374.596 396.759 373.927 395.871C371.998 393.302 369.573 389.768 368.197 386.894C367.92 386.321 366.717 382.787 366.555 382.625C366.144 382.233 365.657 383.675 365.552 383.904C363.852 387.552 362.611 391.248 360.701 394.963C357.559 401.056 351.084 412.306 345.946 416.604C341.114 420.643 332.519 416.67 331.85 410.702C331.22 405.077 334.591 403.386 337.628 399.605C348.209 386.464 354.694 370.391 358.122 353.927H337.513L337.494 353.956ZM397.879 376.618H380.164C380.078 376.618 379.839 376.847 379.906 377.105C380.183 378.251 382.322 381.717 383.076 382.863C384.843 385.528 387.011 387.915 389.322 390.112C391.69 387.82 393.916 384.993 395.568 382.138C395.988 381.421 398.328 377.057 397.879 376.608V376.618Z" fill="#F8FBF4" stroke="#DF4E42" stroke-width="3" stroke-miterlimit="10"/>
<path d="M320.61 211.65C343.903 200.935 363.939 241.284 346.758 258.894C327.391 278.758 303.182 248.532 309.59 226.415C311.032 221.439 315.807 213.856 320.601 211.65H320.61Z" fill="#2F2B29"/>
<path d="M149.147 265.377C184.73 245.073 200.526 319.42 162.622 316.546C146.569 315.323 137.773 294.504 140.638 280.418C141.421 276.569 145.843 267.258 149.147 265.377Z" fill="#31302F"/>
<path d="M371.82 253.545C382.278 249.974 402.82 248.15 406.573 262.303C408.531 269.666 402.17 279.751 395.629 282.931C385.324 287.925 359.806 295.193 353.628 281.193C347.63 267.593 359.787 257.652 371.811 253.555L371.82 253.545Z" fill="#F36B57"/>
<path d="M131.101 327.2C140.67 323.132 160.229 321.145 166.054 332.175C176.874 352.708 137.461 367.911 122.095 359.66C104.714 350.33 117.798 332.853 131.101 327.2Z" fill="#F36C58"/>
<path d="M225.087 288.101C231.676 283.747 235.687 292.198 240.968 294.337C249.554 297.823 265.063 292.809 268.721 283.938C270.258 280.213 268.778 275.285 272.741 273.299C282.11 268.619 284.469 279.774 282.062 287.118C275.902 305.903 245.571 314.899 230.196 303.553C226.109 300.535 219.462 291.807 225.087 288.092V288.101Z" fill="#312B28"/>
<path d="M317.302 222.913C327.73 222.226 326.412 237.363 318.056 234.03C313.625 232.263 314.675 225.874 317.302 222.913Z" fill="#DBD8D4"/>
<path d="M149.183 274.141C156.976 274.36 159.239 282.525 152.926 286.985C144.054 286.183 144.226 280.043 149.183 274.141Z" fill="#E9E9E8"/>
<path d="M180.504 517.453C-64.3007 376.534 58.9896 162.471 60.6322 159.988C60.6322 159.988 60.6513 159.978 60.6513 159.969C-40.2825 246.855 -5.8739 406.454 95.2127 478.575C95.2127 478.575 133.785 509.011 180.504 517.453Z" fill="#D2493E"/>
</svg>
